fd_11_states
version=1
nRows=43
nColumns=17
inDegrees=yes

# SIMM Motion File Header:
name fd_11_states
datacolumns 17
datarows 43
otherdata 1
range 0.209851 0.250696
endheader
time	/jointset/r_shoulder/r_shoulder_elev/value	/jointset/r_shoulder/r_shoulder_elev/speed	/jointset/r_elbow/r_elbow_flex/value	/jointset/r_elbow/r_elbow_flex/speed	/forceset/TRIlong/activation	/forceset/TRIlong/fiber_length	/forceset/TRIlat/activation	/forceset/TRIlat/fiber_length	/forceset/TRImed/activation	/forceset/TRImed/fiber_length	/forceset/BIClong/activation	/forceset/BIClong/fiber_length	/forceset/BICshort/activation	/forceset/BICshort/fiber_length	/forceset/BRA/activation	/forceset/BRA/fiber_length
      0.209851	      0.042165	      0.174687	     86.200442	    231.586673	      0.023080	      0.168346	      0.144246	      0.101811	      0.144119	      0.096860	      0.662696	      0.099423	      0.104102	      0.100659	      0.042014	      0.070177
      0.210168	      0.042220	      0.169169	     86.273904	    231.350680	      0.023067	      0.168371	      0.144575	      0.101836	      0.144450	      0.096884	      0.663297	      0.099358	      0.104001	      0.100598	      0.041916	      0.070149
      0.210485	      0.042272	      0.163285	     86.347291	    231.116614	      0.023054	      0.168396	      0.145420	      0.101859	      0.145268	      0.096908	      0.664206	      0.099293	      0.104005	      0.100537	      0.041819	      0.070121
      0.212072	      0.042511	      0.139327	     86.713103	    229.925229	      0.022989	      0.168520	      0.149111	      0.101973	      0.148841	      0.097022	      0.668462	      0.098969	      0.104027	      0.100232	      0.041337	      0.069980
      0.213200	      0.042663	      0.133306	     86.971919	    229.043527	      0.022945	      0.168602	      0.151270	      0.102053	      0.150932	      0.097102	      0.671214	      0.098739	      0.104039	      0.100015	      0.041002	      0.069881
      0.214328	      0.042813	      0.132503	     87.229724	    228.133156	      0.022901	      0.168695	      0.153111	      0.102133	      0.152715	      0.097183	      0.673762	      0.098510	      0.104049	      0.099798	      0.040672	      0.069781
      0.215456	      0.042965	      0.137378	     87.486495	    227.215623	      0.022857	      0.168773	      0.154683	      0.102214	      0.154237	      0.097265	      0.676121	      0.098281	      0.104058	      0.099581	      0.040348	      0.069682
      0.216583	      0.043122	      0.140074	     87.742229	    226.290899	      0.022815	      0.168869	      0.156026	      0.102296	      0.155537	      0.097347	      0.678305	      0.098053	      0.104065	      0.099364	      0.040029	      0.069583
      0.217596	      0.043265	      0.143290	     87.970862	    225.474713	      0.022777	      0.168936	      0.157066	      0.102370	      0.156544	      0.097421	      0.680128	      0.097850	      0.104071	      0.099170	      0.039747	      0.069495
      0.218608	      0.043410	      0.140920	     88.198673	    224.665888	      0.022740	      0.169015	      0.157970	      0.102444	      0.157419	      0.097496	      0.681831	      0.097647	      0.104075	      0.098977	      0.039470	      0.069407
      0.219912	      0.043588	      0.132506	     88.490927	    223.653671	      0.022692	      0.169108	      0.158963	      0.102540	      0.158381	      0.097592	      0.683860	      0.097388	      0.104081	      0.098728	      0.039118	      0.069293
      0.220161	      0.043621	      0.129387	     88.546596	    223.463079	      0.022683	      0.169128	      0.159280	      0.102559	      0.158697	      0.097610	      0.684354	      0.097338	      0.103992	      0.098680	      0.039054	      0.069271
      0.220410	      0.043653	      0.126169	     88.602217	    223.273781	      0.022674	      0.169148	      0.159888	      0.102577	      0.159316	      0.097629	      0.685101	      0.097289	      0.103719	      0.098633	      0.038995	      0.069250
      0.221655	      0.043800	      0.111828	     88.879616	    222.321567	      0.022630	      0.169242	      0.162630	      0.102664	      0.162107	      0.097716	      0.688654	      0.097042	      0.102373	      0.098398	      0.038702	      0.069142
      0.222824	      0.043927	      0.106225	     89.139116	    221.403013	      0.022590	      0.169325	      0.164809	      0.102745	      0.164323	      0.097798	      0.691729	      0.096810	      0.101137	      0.098180	      0.038432	      0.069040
      0.223994	      0.044050	      0.105244	     89.397526	    220.456759	      0.022549	      0.169420	      0.166665	      0.102827	      0.166211	      0.097879	      0.694570	      0.096579	      0.099928	      0.097965	      0.038166	      0.068939
      0.225007	      0.044159	      0.109712	     89.620478	    219.631555	      0.022515	      0.169486	      0.168050	      0.102898	      0.167619	      0.097950	      0.696857	      0.096379	      0.098902	      0.097779	      0.037940	      0.068852
      0.226020	      0.044272	      0.112912	     89.842590	    218.799282	      0.022481	      0.169563	      0.169257	      0.102969	      0.168847	      0.098022	      0.698994	      0.096180	      0.097894	      0.097595	      0.037716	      0.068764
      0.227322	      0.044421	      0.116922	     90.126793	    217.740380	      0.022439	      0.169654	      0.170585	      0.103062	      0.170197	      0.098114	      0.701538	      0.095925	      0.096627	      0.097360	      0.037434	      0.068653
      0.228350	      0.044541	      0.115214	     90.350034	    216.913389	      0.022406	      0.169736	      0.171481	      0.103135	      0.171107	      0.098188	      0.703395	      0.095725	      0.095649	      0.097175	      0.037216	      0.068565
      0.229377	      0.044658	      0.111601	     90.572434	    216.106887	      0.022373	      0.169804	      0.172261	      0.103208	      0.171901	      0.098261	      0.705130	      0.095526	      0.094688	      0.096992	      0.037000	      0.068477
      0.230072	      0.044734	      0.105360	     90.722558	    215.568810	      0.022351	      0.169856	      0.172839	      0.103258	      0.172483	      0.098311	      0.706293	      0.095392	      0.094102	      0.096868	      0.036854	      0.068418
      0.230362	      0.044764	      0.102231	     90.784888	    215.347652	      0.022342	      0.169876	      0.173514	      0.103278	      0.173148	      0.098331	      0.706983	      0.095336	      0.094189	      0.096816	      0.036787	      0.068393
      0.230651	      0.044793	      0.099022	     90.847154	    215.126804	      0.022333	      0.169897	      0.174208	      0.103298	      0.173831	      0.098351	      0.707682	      0.095280	      0.094314	      0.096765	      0.036720	      0.068369
      0.232097	      0.044926	      0.087280	     91.157517	    214.005902	      0.022288	      0.170001	      0.177300	      0.103396	      0.176873	      0.098449	      0.710986	      0.095002	      0.094862	      0.096505	      0.036388	      0.068246
      0.234238	      0.045110	      0.088003	     91.613773	    212.279126	      0.022224	      0.170152	      0.180903	      0.103540	      0.180417	      0.098594	      0.715332	      0.094593	      0.095475	      0.096117	      0.035909	      0.068065
      0.235331	      0.045209	      0.092360	     91.845270	    211.378610	      0.022192	      0.170232	      0.182383	      0.103615	      0.181874	      0.098669	      0.717327	      0.094386	      0.095717	      0.095919	      0.035670	      0.067973
      0.236650	      0.045335	      0.099765	     92.123446	    210.296328	      0.022153	      0.170319	      0.183909	      0.103705	      0.183374	      0.098759	      0.719554	      0.094136	      0.095960	      0.095679	      0.035387	      0.067863
      0.237622	      0.045433	      0.101252	     92.327439	    209.502047	      0.022126	      0.170394	      0.184875	      0.103771	      0.184325	      0.098826	      0.721077	      0.093953	      0.096110	      0.095503	      0.035182	      0.067782
      0.238594	      0.045532	      0.101774	     92.530667	    208.723229	      0.022098	      0.170458	      0.185727	      0.103838	      0.185162	      0.098893	      0.722506	      0.093771	      0.096238	      0.095327	      0.034979	      0.067701
      0.239566	      0.045629	      0.097317	     92.733145	    207.956483	      0.022071	      0.170527	      0.186477	      0.103905	      0.185900	      0.098960	      0.723849	      0.093590	      0.096348	      0.095151	      0.034779	      0.067620
      0.240080	      0.045678	      0.093385	     92.839980	    207.558128	      0.022057	      0.170562	      0.186904	      0.103940	      0.186319	      0.098995	      0.724578	      0.093494	      0.096361	      0.095059	      0.034675	      0.067577
      0.240390	      0.045706	      0.090409	     92.904199	    207.320386	      0.022049	      0.170583	      0.187584	      0.103961	      0.186980	      0.099016	      0.725345	      0.093437	      0.096133	      0.095003	      0.034612	      0.067552
      0.240699	      0.045734	      0.087259	     92.968344	    207.083220	      0.022040	      0.170605	      0.188282	      0.103982	      0.187659	      0.099037	      0.726132	      0.093380	      0.095883	      0.094948	      0.034550	      0.067526
      0.242247	      0.045858	      0.074723	     93.287962	    205.884133	      0.021999	      0.170711	      0.191379	      0.104084	      0.190668	      0.099139	      0.729839	      0.093093	      0.094656	      0.094673	      0.034243	      0.067398
      0.244475	      0.046018	      0.069557	     93.744658	    204.098249	      0.021940	      0.170874	      0.194869	      0.104230	      0.194061	      0.099286	      0.734562	      0.092682	      0.092947	      0.094284	      0.033812	      0.067215
      0.245162	      0.046067	      0.072601	     93.884750	    203.545273	      0.021923	      0.170912	      0.195758	      0.104275	      0.194925	      0.099331	      0.735888	      0.092556	      0.092434	      0.094166	      0.033682	      0.067159
      0.246317	      0.046152	      0.074821	     94.119222	    202.609684	      0.021893	      0.170987	      0.197087	      0.104351	      0.196215	      0.099408	      0.737987	      0.092345	      0.091585	      0.093967	      0.033467	      0.067065
      0.247471	      0.046239	      0.074236	     94.352617	    201.677866	      0.021864	      0.171069	      0.198233	      0.104427	      0.197329	      0.099484	      0.739938	      0.092135	      0.090753	      0.093771	      0.033254	      0.066971
      0.248626	      0.046323	      0.072448	     94.584943	    200.762970	      0.021836	      0.171142	      0.199222	      0.104504	      0.198290	      0.099561	      0.741750	      0.091926	      0.089938	      0.093575	      0.033046	      0.066877
      0.249781	      0.046403	      0.063874	     94.816222	    199.860974	      0.021808	      0.171226	      0.200077	      0.104581	      0.199120	      0.099638	      0.743434	      0.091719	      0.089139	      0.093380	      0.032841	      0.066784
      0.250238	      0.046432	      0.060334	     94.907599	    199.512026	      0.021797	      0.171253	      0.200533	      0.104611	      0.199566	      0.099668	      0.744170	      0.091636	      0.088842	      0.093304	      0.032760	      0.066747
      0.250696	      0.046458	      0.055479	     94.998817	    199.164107	      0.021786	      0.171282	      0.201549	      0.104641	      0.200571	      0.099698	      0.745292	      0.091555	      0.088608	      0.093227	      0.032680	      0.066710
